<svg width="52" height="58" viewBox="0 0 52 58" fill="none" xmlns="http://www.w3.org/2000/svg">
<path d="M40.2168 12.4252L41.248 10.6858C41.3243 10.5594 41.4492 10.4673 41.5955 10.4296C41.7417 10.3919 41.8974 10.4118 42.0286 10.4849L42.9309 10.9908C43.0629 11.0632 43.2192 11.0821 43.3656 11.0431C43.5119 11.0041 43.6363 10.9105 43.7114 10.7829L44.9431 8.70391C45.0186 8.57699 45.0392 8.42631 45.0003 8.28479C44.9614 8.14326 44.8662 8.02239 44.7355 7.94855L38.7416 4.61529C38.6739 4.57604 38.5984 4.55095 38.52 4.54162C38.4417 4.53229 38.3622 4.53893 38.2866 4.56113C38.2111 4.58332 38.1412 4.62057 38.0814 4.67047C38.0216 4.72038 37.9733 4.78184 37.9396 4.8509L36.7007 6.92986C36.6467 7.05349 36.641 7.19185 36.6844 7.31929C36.7279 7.44673 36.8176 7.55458 36.937 7.62285L37.8393 8.1218C37.97 8.19563 38.0652 8.31651 38.1041 8.45804C38.143 8.59956 38.1225 8.75023 38.047 8.87716L37.0086 10.6096C34.3517 9.38041 31.4955 8.60441 28.5657 8.31584V6.11214C28.5657 6.00235 28.5881 5.89364 28.6318 5.7923C28.6754 5.69095 28.7393 5.59897 28.8199 5.52166C28.9004 5.44435 28.996 5.38324 29.1011 5.34186C29.2062 5.30048 29.3187 5.27964 29.4322 5.28056H30.9933C31.2231 5.28056 31.4435 5.19221 31.606 5.03496C31.7685 4.87771 31.8598 4.66443 31.8598 4.44204V0.831584C31.8579 0.610399 31.7658 0.398896 31.6035 0.24314C31.4412 0.0873837 31.2219 -7.5535e-06 30.9933 4.89677e-10L20.5524 4.89677e-10C20.3238 -7.5535e-06 20.1045 0.0873837 19.9422 0.24314C19.7799 0.398896 19.6878 0.610399 19.6859 0.831584V4.44204C19.6859 4.66443 19.7772 4.87771 19.9397 5.03496C20.1022 5.19221 20.3226 5.28056 20.5524 5.28056H22.1135C22.227 5.27964 22.3395 5.30048 22.4446 5.34186C22.5497 5.38324 22.6452 5.44435 22.7258 5.52166C22.8063 5.59897 22.8703 5.69095 22.9139 5.7923C22.9575 5.89364 22.98 6.00235 22.98 6.11214V8.31584C20.0532 8.6184 17.2021 9.40603 14.5514 10.6443L13.4844 8.85637C13.446 8.79376 13.421 8.72438 13.4107 8.65228C13.4004 8.58019 13.405 8.50683 13.4243 8.4365C13.4437 8.36617 13.4773 8.30027 13.5233 8.24267C13.5692 8.18506 13.6266 8.1369 13.692 8.10101L14.5872 7.59513C14.7179 7.5213 14.8131 7.40042 14.852 7.2589C14.8909 7.11737 14.8704 6.9667 14.7949 6.83978L13.5918 4.75389C13.5155 4.62741 13.3906 4.53529 13.2443 4.49764C13.0981 4.45998 12.9424 4.47986 12.8112 4.55292L6.7959 7.89311C6.66398 7.96579 6.56727 8.08616 6.52699 8.22778C6.48671 8.36941 6.50616 8.52071 6.58106 8.64847L7.81993 10.7274C7.89623 10.8539 8.02114 10.946 8.16739 10.9837C8.31364 11.0213 8.46934 11.0015 8.6005 10.9284L9.49563 10.3948C9.62679 10.3217 9.78249 10.3019 9.92874 10.3395C10.075 10.3772 10.1999 10.4693 10.2762 10.5958L11.3432 12.3837C6.77079 15.3745 3.31089 19.7063 1.47242 24.742C-0.36604 29.7777 -0.486018 35.2514 1.13014 40.3581C2.74629 45.4647 6.01327 49.9346 10.4505 53.1103C14.8878 56.2861 20.261 58 25.78 58C31.299 58 36.6722 56.2861 41.1095 53.1103C45.5467 49.9346 48.8137 45.4647 50.4299 40.3581C52.046 35.2514 51.926 29.7777 50.0876 24.742C48.2491 19.7063 44.7892 15.3745 40.2168 12.3837V12.4252ZM30.2629 0.914742H30.6639V4.37967H30.2629V0.914742ZM28.8736 0.914742H29.6398V4.37967H28.8736V0.914742ZM21.2828 4.37967H20.8818V0.914742H21.2828V4.37967ZM22.6721 4.37967H21.9058V0.914742H22.6721V4.37967ZM27.4772 0.914742H28.2434V4.37967H27.4772V0.914742ZM26.0879 0.914742H26.8542V4.37967H26.0879V0.914742ZM24.6557 0.914742H25.4219V4.37967H24.6915L24.6557 0.914742ZM23.2664 0.914742H24.0327V4.37967H23.3023L23.2664 0.914742ZM25.7657 53.6857C21.5581 53.6843 17.4453 52.4756 13.9475 50.2125C10.4497 47.9493 7.72384 44.7334 6.11464 40.9712C4.50543 37.209 4.08512 33.0695 4.90686 29.0761C5.72859 25.0828 7.75547 21.4149 10.7312 18.5362C13.7069 15.6575 17.4979 13.6974 21.6248 12.9035C25.7517 12.1096 30.0291 12.5178 33.9163 14.0763C37.8035 15.6348 41.1259 18.2737 43.4634 21.6593C45.8009 25.045 47.0485 29.0253 47.0485 33.097C47.0485 35.8013 46.498 38.4792 45.4283 40.9776C44.3587 43.4759 42.7909 45.7459 40.8145 47.6578C38.8381 49.5698 36.4918 51.0862 33.9097 52.1204C31.3276 53.1547 28.5602 53.6866 25.7657 53.6857V53.6857Z" fill="black"/>
</svg>
